# xmcd CD database file
#
# Track frame offsets:
#	150
#	13880
#	21960
#	31962
#	42550
#	56605
#	68195
#	81610
#	92485
#	105355
#	114032
#	127455
#	141995
#	156330
#	167305
#	177352
#	188892
#	200452
#	214862
#	225405
#	240262
#
# Disc length: 3344 seconds
#
# Revision: 0
# Processed by: cddbd v1.4PL0 Copyright (c) Steve Scherf et al.
# Submitted via: CD2WAV32(EN) R3.19
#
DISCID=200d0e15
DTITLE=George Smith - Oopin' Doopin' Blues Man
DYEAR=1900
DGENRE=
TTITLE0=Telephone Blues
TTITLE1=Have Myself A Ball
TTITLE2=I Found My Baby
TTITLE3=Oopin' Doopin' Doopin'
TTITLE4=Blues Stay Away
TTITLE5=Rockin'
TTITLE6=Blues In The Dark
TTITLE7=Down In New Orleans aka Hey Mr. Porter
TTITLE8=Love Life
TTITLE9=Cross Eyed Suzie Lee(Alt. Take)
TTITLE10=California Blues
TTITLE11=Early One Monday Morning(Take 2)
TTITLE12=Blues Stay Away(Alt. Take)
TTITLE13=You Don't Love Me
TTITLE14=I Found My Baby(Alt. Take)
TTITLE15=Down In New Orleans aka Hey Mr. Porter(Alt. Take)
TTITLE16=Rockin'(Alt. Take)
TTITLE17=Early One Monday Morning(Take 1)
TTITLE18=Oopin' Doopin' Doopin'(Alt. Take)
TTITLE19=California Blues(Alt. Take)
TTITLE20=Cross Eyed Suzie Lee
EXTD=
EXTT0=
EXTT1=
EXTT2=
EXTT3=
EXTT4=
EXTT5=
EXTT6=
EXTT7=
EXTT8=
EXTT9=
EXTT10=
EXTT11=
EXTT12=
EXTT13=
EXTT14=
EXTT15=
EXTT16=
EXTT17=
EXTT18=
EXTT19=
EXTT20=
PLAYORDER=
